<svg preserveAspectRatio="none" overflow="visible" style="display: block;" width="52.5" height="35" viewBox="0 0 52.5 35" fill="none" xmlns="http://www.w3.org/2000/svg">
<g id="Group">
<path id="Vector" fill-rule="evenodd" clip-rule="evenodd" d="M0 0H52.5V35H0V0Z" fill="#0C590B"/>
<path id="Vector_2" fill-rule="evenodd" clip-rule="evenodd" d="M0 0H13.1592V35H0V0Z" fill="#F1F1F1"/>
<g id="Group_2">
<path id="Vector_3" fill-rule="evenodd" clip-rule="evenodd" d="M34.0908 15.4082L31.958 14.957L30.8369 16.8232L30.6045 14.6631L28.4854 14.1709L30.4678 13.2822L30.2832 11.1152L31.7461 12.7285L33.749 11.8809L32.6621 13.7676L34.0977 15.4082H34.0908Z" fill="white"/>
<path id="Vector_4" fill-rule="evenodd" clip-rule="evenodd" d="M34.8906 20.918C34.4357 21.9107 33.789 22.8037 32.9877 23.5456C32.1865 24.2875 31.2465 24.8637 30.2218 25.2411C29.1971 25.6184 28.1078 25.7895 27.0168 25.7444C25.9257 25.6994 24.8543 25.4391 23.8642 24.9785C21.8554 24.0484 20.2984 22.3585 19.5356 20.2804C18.7728 18.2023 18.8668 15.9063 19.7968 13.8975C20.2587 12.8648 20.9316 11.9403 21.7722 11.1833C22.6128 10.4263 23.6025 9.85356 24.6777 9.50195C24.3962 9.73633 24.127 9.98503 23.8711 10.2471C22.5374 11.7241 21.8294 13.6613 21.8964 15.6503C21.9633 17.6392 22.8001 19.5244 24.2301 20.9083C25.6602 22.2923 27.5718 23.0668 29.5618 23.0686C31.5519 23.0704 33.4649 22.2993 34.8974 20.918H34.8906Z" fill="white"/>
</g>
</g>
</svg>
