<svg preserveAspectRatio="none" overflow="visible" style="display: block;" width="30" height="30" viewBox="0 0 30 30" fill="none" xmlns="http://www.w3.org/2000/svg">
<g id="Group 3">
<circle id="Ellipse 2" cx="15" cy="15" r="15" fill="#1A1624"/>
<g id="favorite">
<mask id="mask0_0_4" style="mask-type:alpha" maskUnits="userSpaceOnUse" x="7" y="8" width="16" height="16">
<rect id="Bounding box" x="7" y="8" width="16" height="16" fill="#D9D9D9"/>
</mask>
<g mask="url(#mask0_0_4)">
<path id="favorite_2" d="M15 22L14.0333 21.1333C12.9111 20.1222 11.9833 19.25 11.25 18.5167C10.5167 17.7833 9.93333 17.125 9.5 16.5417C9.06667 15.9583 8.76389 15.4222 8.59167 14.9333C8.41944 14.4444 8.33333 13.9444 8.33333 13.4333C8.33333 12.3889 8.68333 11.5167 9.38333 10.8167C10.0833 10.1167 10.9556 9.76666 12 9.76666C12.5778 9.76666 13.1278 9.88888 13.65 10.1333C14.1722 10.3778 14.6222 10.7222 15 11.1667C15.3778 10.7222 15.8278 10.3778 16.35 10.1333C16.8722 9.88888 17.4222 9.76666 18 9.76666C19.0444 9.76666 19.9167 10.1167 20.6167 10.8167C21.3167 11.5167 21.6667 12.3889 21.6667 13.4333C21.6667 13.9444 21.5806 14.4444 21.4083 14.9333C21.2361 15.4222 20.9333 15.9583 20.5 16.5417C20.0667 17.125 19.4833 17.7833 18.75 18.5167C18.0167 19.25 17.0889 20.1222 15.9667 21.1333L15 22Z" fill="#8B45E8"/>
</g>
</g>
</g>
</svg>
