<svg width="24" height="24" viewBox="0 0 24 24" fill="none" xmlns="http://www.w3.org/2000/svg">
<path d="M20.0878 1.60001C16.6572 1.60001 12.054 3.95361 8.9628 8.00001H6.40024C4.54856 8.00001 3.48728 9.38209 2.75656 10.8437L1.77832 12.8H4.08776H6.40024L8.80024 15.2L11.2002 17.6V19.9125V22.2219L13.1566 21.2438C14.6182 20.513 16.0002 19.4517 16.0002 17.6V15.0374C20.0466 11.9462 22.4002 7.34305 22.4002 3.91249V1.60001H20.0878ZM16.0002 6.40001C16.8839 6.40001 17.6002 7.11633 17.6002 8.00001C17.6002 8.88369 16.8839 9.60001 16.0002 9.60001C15.1166 9.60001 14.4002 8.88369 14.4002 8.00001C14.4002 7.11633 15.1166 6.40001 16.0002 6.40001ZM5.60024 16L4.80024 16.8C3.64472 17.9555 3.20024 20.8 3.20024 20.8C3.20024 20.8 5.91704 20.4832 7.20024 19.2L8.00024 18.4L5.60024 16Z" fill="#9B35F4"/>
</svg>
